<svg width="48" height="48" viewBox="0 0 48 48" fill="none" xmlns="http://www.w3.org/2000/svg">
<rect width="48" height="48" rx="8" fill="#F2F2F2"/>
<path d="M16.0001 16.3333V18.6667H13.8334C12.0845 18.6667 10.6667 20.0844 10.6667 21.8333V34.1667C10.6667 35.9156 12.0845 37.3333 13.8334 37.3333H28.8334C28.9597 37.3333 29.0842 37.3259 29.2066 37.3116C28.9292 37.1072 28.6393 36.8747 28.3483 36.6128C28.0406 36.336 27.7263 36.0208 27.4223 35.6667H13.8334C13.005 35.6667 12.3334 34.9951 12.3334 34.1667V21.8333C12.3334 21.0049 13.005 20.3333 13.8334 20.3333H28.8334C29.6618 20.3333 30.3334 21.0049 30.3334 21.8333V23.5226C30.4181 23.449 30.4926 23.382 30.5531 23.3267C30.6054 23.279 30.6462 23.2408 30.6727 23.2158L30.7012 23.1887L30.706 23.1841C31.066 22.8348 31.5337 22.6623 32.0001 22.6667V21.8333C32.0001 20.0844 30.5823 18.6667 28.8334 18.6667H26.6667V16.3333C26.6667 13.3878 24.2789 11 21.3334 11C18.3879 11 16.0001 13.3878 16.0001 16.3333ZM21.3334 12.6667C23.3585 12.6667 25.0001 14.3083 25.0001 16.3333V18.6667H17.6667V16.3333C17.6667 14.3083 19.3084 12.6667 21.3334 12.6667Z" fill="black"/>
<path d="M23.3334 28C23.3334 29.1046 22.438 30 21.3334 30C20.2288 30 19.3334 29.1046 19.3334 28C19.3334 26.8954 20.2288 26 21.3334 26C22.438 26 23.3334 26.8954 23.3334 28Z" fill="black"/>
<path d="M26 26.4907V30.3175C26 34.6393 30.2094 36.8492 31.1483 37.2884C31.2673 37.3441 31.3975 37.3441 31.5167 37.2886C32.4559 36.8514 36.6667 34.6571 36.6667 30.4591V26.4905C36.6667 26.2114 36.4388 25.9862 36.1599 25.9767C35.5186 25.9547 34.4084 25.8739 33.6657 25.5842C32.9752 25.3147 32.1771 24.6041 31.7163 24.1543C31.5057 23.9487 31.1608 23.9486 30.9501 24.154C30.4889 24.6039 29.6901 25.3146 29.0001 25.5842C28.2579 25.8741 27.148 25.9548 26.5069 25.9767C26.2279 25.9862 26 26.2116 26 26.4907Z" fill="#EB5757"/>
</svg>
