<svg width="360" height="328" viewBox="0 0 360 328" fill="none" xmlns="http://www.w3.org/2000/svg">
<path d="M206.056 155.978C206.349 155.895 206.654 156.066 206.737 156.359C206.819 156.652 206.648 156.957 206.355 157.039L159.569 170.218C148.139 173.438 141.482 185.315 144.702 196.746C145.453 199.41 146.711 201.904 148.407 204.092L155.267 212.939C161.918 221.517 160.357 233.862 151.779 240.513C147.928 243.5 143.104 244.949 138.244 244.578L114.652 242.782C102.675 241.87 90.9814 246.723 83.1702 255.848L71.7271 269.215C71.5291 269.446 71.181 269.473 70.9497 269.275C70.7184 269.077 70.6914 268.729 70.8894 268.498L82.3325 255.131C90.3723 245.739 102.409 240.743 114.736 241.682L138.328 243.479C142.915 243.828 147.468 242.461 151.103 239.642C159.2 233.364 160.674 221.711 154.396 213.615L147.535 204.767C145.752 202.468 144.43 199.846 143.641 197.045C140.256 185.028 147.253 172.542 159.27 169.157L206.056 155.978ZM124.973 315.665V306.109C124.973 305.703 125.302 305.374 125.708 305.374C126.114 305.374 126.443 305.703 126.443 306.109V315.665H136C136.406 315.665 136.735 315.995 136.735 316.401C136.735 316.807 136.406 317.136 136 317.136H126.443V326.693C126.443 327.099 126.114 327.428 125.708 327.428C125.302 327.428 124.973 327.099 124.973 326.693V317.136H115.416C115.01 317.136 114.681 316.807 114.681 316.401C114.681 315.995 115.01 315.665 115.416 315.665H124.973ZM92.6272 123.06V113.503C92.6272 113.097 92.9563 112.768 93.3624 112.768C93.7684 112.768 94.0975 113.097 94.0975 113.503V123.06H103.654C104.06 123.06 104.389 123.389 104.389 123.795C104.389 124.201 104.06 124.53 103.654 124.53H94.0975V134.087C94.0975 134.493 93.7684 134.822 93.3624 134.822C92.9563 134.822 92.6272 134.493 92.6272 134.087V124.53H83.0704C82.6644 124.53 82.3353 124.201 82.3353 123.795C82.3353 123.389 82.6644 123.06 83.0704 123.06H92.6272ZM7.71893 209.071V202.087C7.71893 201.681 8.04807 201.352 8.45407 201.352C8.86008 201.352 9.18921 201.681 9.18921 202.087V209.071H16.173C16.579 209.071 16.9081 209.4 16.9081 209.806C16.9081 210.212 16.579 210.541 16.173 210.541H9.18921V217.525C9.18921 217.931 8.86008 218.26 8.45407 218.26C8.04807 218.26 7.71893 217.931 7.71893 217.525V210.541H0.735137C0.329132 210.541 0 210.212 0 209.806C0 209.4 0.329132 209.071 0.735137 209.071H7.71893Z" fill="#F56843"/>
<path fill-rule="evenodd" clip-rule="evenodd" d="M228.627 123.06L221.276 124.897L240.022 143.276L242.228 135.925" fill="white"/>
<path fill-rule="evenodd" clip-rule="evenodd" d="M341.305 15.0674C323.047 21.3491 304.436 32.4923 285.475 48.4969C265.916 65.0056 244.818 87.6693 222.182 116.488L247.621 141.054C275.802 117.113 297.716 95.2376 313.362 75.4276C328.537 56.215 339.106 37.3118 345.07 18.718C345.409 17.6626 345.118 16.5064 344.321 15.7365C343.521 14.9642 342.356 14.7057 341.305 15.0674Z" fill="#FFD1D1"/>
<path fill-rule="evenodd" clip-rule="evenodd" d="M312.433 28.9622L331.914 46.973C342.451 27.8595 346.617 17.3225 344.412 15.3621C342.206 13.4018 331.547 17.9351 312.433 28.9622Z" fill="#FFAFAF"/>
<path fill-rule="evenodd" clip-rule="evenodd" d="M236.906 140.626L225.319 154.671L226.422 144.011L217.233 146.216L220.909 138.13H210.249L223.605 127.586L220.187 124.234L228.494 122.157L228.761 123.227L222.365 124.826L239.756 141.876L241.699 135.399L242.756 135.715L240.288 143.941L236.906 140.626Z" fill="#F56843"/>
<path d="M285.108 47.8282C265.518 64.3636 244.395 87.0539 221.738 115.9C221.563 116.122 221.585 116.441 221.789 116.637L247.227 141.203C247.431 141.4 247.751 141.41 247.967 141.227C276.174 117.264 298.113 95.3636 313.784 75.5219C328.997 56.2601 339.599 37.2997 345.585 18.6391C345.987 17.3836 345.642 16.0084 344.693 15.0925C343.744 14.1762 342.362 13.8696 341.115 14.2987C322.787 20.6041 304.119 31.782 285.108 47.8282ZM222.913 116.19C245.411 87.5847 266.381 65.0781 285.819 48.6709C304.732 32.7077 323.284 21.5993 341.473 15.3414C342.329 15.0472 343.277 15.2574 343.927 15.8857C344.573 16.5098 344.809 17.4468 344.534 18.3022C338.592 36.8292 328.054 55.675 312.919 74.8384C297.368 94.5275 275.606 116.27 247.634 140.063L222.913 116.19Z" fill="#F56843"/>
<path fill-rule="evenodd" clip-rule="evenodd" d="M260.012 77.4812L256.732 83.3193L222.558 116.266L196.981 117.787L194.811 115.692L260.012 77.4812ZM285.812 102.186L248.745 168.043L246.612 165.911L247.687 140.311L280.032 105.567L285.812 102.186Z" fill="white"/>
<path d="M259.374 77.2675C259.86 76.9831 260.409 77.5227 260.134 78.0132L256.854 83.8513L256.756 83.9782L222.582 116.925C222.487 117.016 222.363 117.07 222.232 117.078L196.655 118.6C196.501 118.609 196.35 118.553 196.239 118.446L194.07 116.351C193.807 116.097 193.859 115.663 194.174 115.478L259.374 77.2675ZM195.359 116.062L196.831 117.484L221.963 115.99L255.933 83.2406L258.175 79.2484L195.359 116.062ZM255.991 83.1844L255.893 83.3113L255.933 83.2406L255.991 83.1844ZM285.175 101.972C285.661 101.688 286.21 102.228 285.934 102.718L248.867 168.576C248.688 168.894 248.255 168.953 247.997 168.695L245.864 166.562C245.755 166.453 245.697 166.304 245.703 166.15L246.778 140.55C246.783 140.419 246.835 140.294 246.925 140.197L279.27 105.453L279.395 105.353L285.175 101.972ZM280.022 106.264L247.871 140.8L246.815 165.954L248.262 167.401L283.974 103.952L280.022 106.264Z" fill="#F56843"/>
<path d="M301.406 71.6001C307.496 71.6001 312.433 66.6631 312.433 60.573C312.433 54.483 307.496 49.546 301.406 49.546C295.316 49.546 290.379 54.483 290.379 60.573C290.379 66.6631 295.316 71.6001 301.406 71.6001Z" fill="white"/>
<path d="M301.554 71.8942C307.949 71.8942 313.133 66.7103 313.133 60.3158C313.133 53.9212 307.949 48.7374 301.554 48.7374C295.16 48.7374 289.976 53.9212 289.976 60.3158C289.976 66.7103 295.16 71.8942 301.554 71.8942ZM301.554 70.7915C295.769 70.7915 291.079 66.1013 291.079 60.3158C291.079 54.5302 295.769 49.8401 301.554 49.8401C307.34 49.8401 312.03 54.5302 312.03 60.3158C312.03 66.1013 307.34 70.7915 301.554 70.7915Z" fill="#F56843"/>
<path d="M301.406 66.2704C298.26 66.2704 295.709 63.7196 295.709 60.573C295.709 57.4265 298.26 54.8757 301.406 54.8757C304.553 54.8757 307.103 57.4265 307.103 60.573C307.103 63.7196 304.553 66.2704 301.406 66.2704ZM301.406 65.1677C303.944 65.1677 306.001 63.1106 306.001 60.573C306.001 58.0355 303.944 55.9784 301.406 55.9784C298.869 55.9784 296.811 58.0355 296.811 60.573C296.811 63.1106 298.869 65.1677 301.406 65.1677ZM312.056 28.9973L312.81 28.1919L332.46 46.5703L331.707 47.3757L312.056 28.9973Z" fill="#F56843"/>
</svg>
