<svg width="48" height="48" viewBox="0 0 48 48" fill="none" xmlns="http://www.w3.org/2000/svg">
<rect width="48" height="48" rx="8" fill="#F2F2F2"/>
<path d="M24.0001 10.6667C24.952 10.6667 25.8916 10.7666 26.8079 10.9631C27.5821 11.1291 27.8654 12.0863 27.3063 12.647C26.6865 13.2685 26.3334 14.1049 26.3334 15C26.3334 16.5606 27.415 17.9029 28.9145 18.2484C29.408 18.362 29.7386 18.8266 29.6843 19.33C29.6726 19.4383 29.6667 19.5508 29.6667 19.6667C29.6667 21.5076 31.1591 23 33.0001 23C33.9689 23 34.8685 22.5858 35.4981 21.8738C36.0703 21.2268 37.1383 21.5606 37.2402 22.4182C37.3022 22.9397 37.3334 23.4678 37.3334 24C37.3334 31.3638 31.3639 37.3334 24.0001 37.3334C16.6363 37.3334 10.6667 31.3638 10.6667 24C10.6667 16.6362 16.6363 10.6667 24.0001 10.6667ZM24.0001 12.6667C17.7409 12.6667 12.6667 17.7408 12.6667 24C12.6667 30.2592 17.7409 35.3334 24.0001 35.3334C29.9157 35.3334 34.7728 30.801 35.2882 25.0195L35.3135 24.678L35.3228 24.468L35.0648 24.5854C34.624 24.7705 34.1565 24.8967 33.6733 24.9577L33.3082 24.9912L33.0001 25C30.3253 25 28.1104 23.031 27.7259 20.4634L27.6927 20.1957L27.6734 19.9467L27.4802 19.8662C25.7679 19.097 24.5599 17.4613 24.362 15.5542L24.34 15.2662L24.3334 15C24.3334 14.4042 24.4318 13.8235 24.6182 13.277L24.7405 12.9534L24.8534 12.7L24.4851 12.6769L24.0001 12.6667ZM28.0001 29.3334C28.7365 29.3334 29.3334 29.9303 29.3334 30.6667C29.3334 31.4031 28.7365 32 28.0001 32C27.2637 32 26.6667 31.4031 26.6667 30.6667C26.6667 29.9303 27.2637 29.3334 28.0001 29.3334ZM18.6667 28C19.4031 28 20.0001 28.597 20.0001 29.3334C20.0001 30.0697 19.4031 30.6667 18.6667 30.6667C17.9304 30.6667 17.3334 30.0697 17.3334 29.3334C17.3334 28.597 17.9304 28 18.6667 28ZM24.0001 22.6667C24.7365 22.6667 25.3334 23.2636 25.3334 24C25.3334 24.7364 24.7365 25.3334 24.0001 25.3334C23.2637 25.3334 22.6667 24.7364 22.6667 24C22.6667 23.2636 23.2637 22.6667 24.0001 22.6667ZM17.3334 18.6667C18.0698 18.6667 18.6667 19.2636 18.6667 20C18.6667 20.7364 18.0698 21.3334 17.3334 21.3334C16.597 21.3334 16.0001 20.7364 16.0001 20C16.0001 19.2636 16.597 18.6667 17.3334 18.6667Z" fill="black"/>
</svg>
