<svg width="48" height="48" viewBox="0 0 48 48" fill="none" xmlns="http://www.w3.org/2000/svg">
<rect width="48" height="48" rx="8" fill="#F2F2F2"/>
<path d="M33.9885 15.2311C35.8607 17.6947 35.6723 21.224 33.4232 23.4731L31.2009 25.6954C30.8661 26.0301 30.3234 26.0301 29.9887 25.6954L22.3115 18.0182C21.9768 17.6835 21.9768 17.1408 22.3115 16.806L24.5339 14.5837C26.7831 12.3345 30.3128 12.1462 32.7764 14.0188L36.2558 10.539C36.5906 10.2043 37.1333 10.2043 37.468 10.539C37.8028 10.8737 37.8028 11.4164 37.4681 11.7512L33.9885 15.2311ZM30.5948 23.8771L32.211 22.2609C33.9963 20.4756 33.9963 17.5812 32.211 15.7959C30.4258 14.0106 27.5313 14.0106 25.746 15.7959L24.1298 17.4121L30.5948 23.8771Z" fill="black"/>
<path d="M22.6033 20.8172C22.938 21.1519 22.938 21.6946 22.6033 22.0294L20.173 24.4595L23.5408 27.8273L25.9701 25.3981C26.3048 25.0634 26.8475 25.0634 27.1823 25.3982C27.517 25.7329 27.517 26.2756 27.1822 26.6103L24.753 29.0394L25.6981 29.9845C26.0328 30.3192 26.0328 30.8619 25.6981 31.1967L23.4757 33.419C21.2266 35.6682 17.697 35.8565 15.2334 33.9841L11.754 37.4638C11.4193 37.7985 10.8766 37.7985 10.5419 37.4638C10.2071 37.1291 10.2071 36.5864 10.5418 36.2516L14.0212 32.7719C12.1489 30.3083 12.3373 26.7788 14.5864 24.5297L16.8087 22.3073C17.1435 21.9726 17.6862 21.9726 18.0209 22.3073L18.9609 23.2473L21.3911 20.8171C21.7258 20.4824 22.2686 20.4824 22.6033 20.8172ZM15.8061 32.2143C17.5919 33.9921 20.4808 33.9896 22.2635 32.2068L23.8798 30.5906L17.4148 24.1256L15.7986 25.7419C14.0158 27.5246 14.0133 30.4134 15.791 32.1992L15.7985 32.2066L15.8061 32.2143Z" fill="black"/>
</svg>
