<svg width="480" height="317" viewBox="0 0 480 317" fill="none" xmlns="http://www.w3.org/2000/svg">
<path fill-rule="evenodd" clip-rule="evenodd" d="M225.122 106.338C225.229 104.81 225.69 90.5502 226.503 63.5591C226.707 56.8034 222.027 50.8781 215.408 49.5107C214.964 49.4191 214.742 49.3732 214.742 49.3732C206.753 48.8146 199.643 54.4055 198.301 62.3007L191.451 102.605" fill="white"/>
<path d="M214.819 49.6832L215.464 49.8163C221.928 51.1516 226.498 56.938 226.299 63.5354C225.486 90.5082 225.025 104.78 224.919 106.301C224.906 106.481 225.042 106.637 225.221 106.65C225.401 106.662 225.557 106.527 225.569 106.347C225.677 104.812 226.137 90.5646 226.951 63.555C227.159 56.641 222.37 50.5768 215.596 49.1774L214.93 49.0399L214.887 49.034C206.73 48.4636 199.471 54.1716 198.101 62.2322L191.251 102.537C191.221 102.714 191.341 102.883 191.518 102.913C191.696 102.943 191.864 102.824 191.895 102.646L198.744 62.3415C200.057 54.6187 207.007 49.1479 214.819 49.6832Z" fill="#EB5757"/>
<path fill-rule="evenodd" clip-rule="evenodd" d="M230.435 102.791L233.934 75.5832C234.271 72.9638 232.421 70.5673 229.802 70.2304C229.599 70.2044 229.396 70.1913 229.192 70.1913C225.949 70.1913 223.074 72.2766 222.067 75.3589L213.1 102.809L230.435 102.791Z" fill="white"/>
<path d="M230.716 102.917C230.88 102.917 231.018 102.796 231.039 102.633L234.539 75.4254C234.899 72.6274 232.922 70.0674 230.124 69.7075C229.908 69.6797 229.69 69.6658 229.473 69.6658C226.089 69.6658 223.089 71.8418 222.038 75.0582L213.071 102.508C213.002 102.719 213.16 102.936 213.382 102.936L230.716 102.917ZM230.429 102.265L213.831 102.283L222.658 75.2608C223.621 72.3126 226.371 70.3182 229.473 70.3182C229.663 70.3182 229.852 70.3303 230.041 70.3546C232.482 70.6685 234.206 72.9015 233.892 75.3422L230.429 102.265Z" fill="#EB5757"/>
<path fill-rule="evenodd" clip-rule="evenodd" d="M144.169 169.566L177.383 158.739C181.148 157.512 183.894 154.26 184.473 150.343L191.573 102.374H230.061L223.251 163.324C222.052 174.06 216.269 183.753 207.391 189.908L169.611 216.1L144.169 169.566Z" fill="#FFD1D1"/>
<path fill-rule="evenodd" clip-rule="evenodd" d="M223.973 157.823C216.29 162.027 210.708 166.811 207.229 172.175C203.75 177.539 200.778 185.585 198.314 196.312C200.442 194.76 202.254 193.455 203.75 192.398C209.876 188.069 214.585 184.131 217.449 179.568C221.363 173.335 223.538 166.087 223.973 157.823Z" fill="#FFAFAF"/>
<path d="M182.166 155.037C182.169 155.032 182.172 155.028 182.175 155.024C182.183 155.012 182.192 155.001 182.202 154.991C183.25 153.642 183.959 152.025 184.219 150.269L191.312 102.344C191.336 102.184 191.473 102.066 191.635 102.066H230.123C230.318 102.066 230.469 102.235 230.447 102.428L227.49 128.899C227.54 128.962 227.567 129.044 227.56 129.131C227.551 129.223 227.505 129.303 227.438 129.357L223.641 163.341C222.429 174.192 216.575 183.986 207.591 190.192L170.013 216.151C169.893 216.234 169.732 216.227 169.619 216.133C164.448 211.82 160.144 206.349 156.709 199.724C153.282 193.115 149.435 182.879 145.162 169.009C145.109 168.839 145.204 168.657 145.375 168.603L177.29 158.421C179.256 157.794 180.939 156.598 182.166 155.037ZM156.093 165.868L145.881 169.126C150.105 182.805 153.908 192.906 157.288 199.424C160.642 205.893 164.829 211.241 169.847 215.473L179.423 208.858L156.093 165.868ZM156.725 165.666L179.963 208.485L207.22 189.656C216.048 183.557 221.802 173.932 222.993 163.268L226.779 129.389L188.5 125.948C188.492 125.947 188.485 125.946 188.478 125.945L184.864 150.364C184.603 152.128 183.917 153.76 182.903 155.145L205.68 171.475C205.826 171.58 205.86 171.784 205.755 171.93C205.65 172.077 205.446 172.11 205.3 172.005L182.502 155.66C181.213 157.214 179.488 158.405 177.488 159.043L156.725 165.666ZM188.574 125.299L226.851 128.74L229.758 102.718H191.916L188.574 125.299Z" fill="#EB5757"/>
<path fill-rule="evenodd" clip-rule="evenodd" d="M84.3707 176.307C84.3707 176.307 74.223 181.598 53.9277 192.181L62.5642 208.036L88.7197 190.423C85.8203 181.012 84.3707 176.307 84.3707 176.307Z" fill="#FFAFAF"/>
<path fill-rule="evenodd" clip-rule="evenodd" d="M286.164 248.282L279.857 196.964L283.119 195.442L296.601 175.437L298.993 174.785C299.858 174.578 300.511 174.578 300.95 174.785C301.389 174.991 301.969 175.571 302.69 176.524V237.41C302.211 238.561 301.776 239.359 301.385 239.802C300.994 240.245 300.342 240.68 299.428 241.107L286.164 248.282ZM228.104 293.512L269.42 278.291L271.377 283.944L298.341 290.903L299.428 292.86C299.183 294.297 298.893 295.312 298.558 295.904C298.224 296.496 297.571 297.148 296.601 297.861L240.282 311.125C239.117 311.242 238.174 311.097 237.455 310.69C236.735 310.284 236.011 309.487 235.28 308.299L228.104 293.512Z" fill="white"/>
<path d="M84.0637 176.036L53.6207 191.909C53.459 191.994 53.3978 192.194 53.4851 192.355L62.1215 208.21C62.2135 208.379 62.4307 208.432 62.5902 208.325L88.7457 190.711C88.8649 190.631 88.9175 190.482 88.8752 190.345L84.5262 176.229C84.4662 176.034 84.2443 175.941 84.0637 176.036ZM88.1805 190.306L62.523 207.584L54.2169 192.334L84.0181 176.795L88.1805 190.306Z" fill="#EB5757"/>
<path fill-rule="evenodd" clip-rule="evenodd" d="M177.656 230.234V230.905L147.866 173.262L105.681 191.093C106.467 216.837 110.071 233.943 116.492 242.411C122.913 250.88 134.313 253.562 150.693 250.457H174.395L177.656 230.234Z" fill="#FFD1D1"/>
<path d="M178.044 230.234V230.905C178.044 231.03 177.982 231.125 177.896 231.179L174.778 250.509C174.753 250.667 174.616 250.783 174.456 250.783H150.785C134.312 253.899 122.797 251.186 116.293 242.608C109.819 234.071 106.204 216.91 105.416 191.103C105.412 190.969 105.491 190.845 105.615 190.793L147.8 172.962C147.957 172.896 148.139 172.961 148.217 173.113L177.583 229.934C177.776 229.853 178.044 229.962 178.044 230.234ZM177.96 230.78L177.975 230.691L177.925 230.595C177.955 230.652 177.967 230.716 177.96 230.78ZM147.776 173.68L106.075 191.307C106.873 216.863 110.463 233.84 116.813 242.214C123.147 250.568 134.423 253.22 150.694 250.137L150.754 250.131H174.178L177.296 230.799L147.776 173.68Z" fill="#EB5757"/>
<path fill-rule="evenodd" clip-rule="evenodd" d="M169.828 216.1L172.002 220.231C165.32 225.502 160.029 229.199 156.129 231.321C152.228 233.444 147.952 235.401 143.299 237.193L140.69 232.626C144.931 230.795 148.99 228.766 152.867 226.538C156.744 224.31 162.398 220.83 169.828 216.1Z" fill="#FFAFAF"/>
<path fill-rule="evenodd" clip-rule="evenodd" d="M182.657 304.602L285.728 248.717L280.075 197.182L177.874 247.413" fill="#FFAFAF"/>
<path d="M169.646 215.612C162.001 220.765 156.064 224.53 151.837 226.905C147.619 229.276 143.651 231.08 139.934 232.317C139.764 232.373 139.671 232.558 139.728 232.729C139.785 232.9 139.969 232.992 140.14 232.936C143.899 231.685 147.904 229.864 152.157 227.474C156.402 225.089 162.352 221.315 170.01 216.153C170.16 216.052 170.199 215.85 170.098 215.7C169.998 215.551 169.795 215.511 169.646 215.612Z" fill="#EB5757"/>
<path d="M171.961 219.972C164.864 225.354 158.664 229.477 153.364 232.339C148.088 235.189 144.491 236.7 142.618 236.868C142.439 236.884 142.306 237.042 142.322 237.222C142.338 237.401 142.497 237.533 142.676 237.517C144.668 237.339 148.319 235.806 153.674 232.913C159.007 230.033 165.233 225.892 172.356 220.491C172.499 220.383 172.527 220.178 172.418 220.034C172.31 219.891 172.105 219.863 171.961 219.972Z" fill="#EB5757"/>
<path d="M285.489 248.422C285.477 248.395 285.47 248.365 285.466 248.334L279.814 197.468L177.862 247.705C177.7 247.785 177.505 247.718 177.425 247.557C177.346 247.395 177.412 247.2 177.574 247.12L282.524 195.405L295.95 175.612C296.422 174.916 297.214 174.504 298.055 174.515C298.354 174.519 298.639 174.576 298.903 174.676C298.921 174.646 298.951 174.61 298.993 174.567C299.138 174.422 299.308 174.33 299.502 174.292C299.697 174.253 299.897 174.233 300.096 174.233C301.785 174.23 303.156 175.597 303.159 177.285L303.25 235.694C303.254 238.205 302.002 240.677 299.599 241.284L299.598 241.329C299.597 241.447 299.531 241.555 299.428 241.611L182.657 304.889C182.499 304.974 182.301 304.916 182.215 304.757C182.129 304.599 182.188 304.401 182.346 304.315L285.489 248.422ZM286.096 248.093L298.949 241.128L299.868 177.042C299.882 176.022 299.067 175.182 298.046 175.168C297.424 175.159 296.839 175.464 296.49 175.978L283.016 195.843C282.984 195.89 282.941 195.927 282.89 195.952L280.374 197.192C280.421 197.242 280.453 197.306 280.461 197.379L286.096 248.093ZM299.574 175.057C300.16 175.523 300.532 176.246 300.52 177.052L299.609 240.605C301.61 239.998 302.601 237.846 302.598 235.695L302.506 177.286C302.504 175.958 301.426 174.883 300.097 174.885C299.94 174.885 299.784 174.901 299.63 174.932C299.61 174.979 299.592 175.021 299.574 175.057Z" fill="#EB5757"/>
<path fill-rule="evenodd" clip-rule="evenodd" d="M100.462 240.687L103.785 258.736L128.572 302.486C135.094 313.997 148.995 319.088 161.409 314.512L170.097 311.309C178.455 308.227 185.665 302.653 190.752 295.341L213.205 263.069L228.105 293.512L269.42 278.291L240.375 209.599C237.192 202.073 229.814 197.182 221.643 197.182C213.008 197.182 204.726 200.603 198.608 206.695L159.669 245.471" fill="#FFD1D1"/>
<path fill-rule="evenodd" clip-rule="evenodd" d="M197.009 208.272C203.968 213.636 211.216 217.477 218.754 219.797C226.292 222.116 234.628 221.609 243.761 218.274C241.722 211.521 239.475 206.809 237.02 204.14C234.095 200.96 228.64 198.129 225.495 197.399C221.368 196.441 213.746 197.55 207.664 200.444C204.738 201.836 201.187 204.445 197.009 208.272Z" fill="#FFAFAF"/>
<path d="M299.324 292.158L299.441 292.13L299.446 292.15C300.123 294.959 298.395 297.785 295.586 298.463L241.265 311.558C238.813 312.149 236.279 311.02 235.073 308.822C234.97 308.806 234.878 308.741 234.831 308.642L213.154 263.698L191.02 295.512C185.894 302.879 178.63 308.494 170.21 311.599L161.522 314.802C148.958 319.434 134.889 314.281 128.288 302.631L103.501 258.881C103.483 258.849 103.471 258.815 103.464 258.779L100.141 240.731C100.108 240.554 100.225 240.384 100.403 240.351C100.58 240.318 100.75 240.435 100.783 240.613L104.096 258.607L128.855 302.309C135.299 313.682 149.032 318.711 161.296 314.19L169.984 310.987C178.279 307.928 185.435 302.397 190.484 295.139L212.937 262.867C213.08 262.662 213.39 262.687 213.499 262.912L228.092 293.169L268.942 278.119L244.427 220.043V220.043C229.921 227.115 213.706 223.723 195.823 209.912L159.9 245.687C159.772 245.814 159.566 245.813 159.438 245.686C159.311 245.558 159.312 245.352 159.439 245.224L198.378 206.448C204.557 200.295 212.922 196.84 221.643 196.84C229.945 196.84 237.439 201.811 240.668 209.46L269.61 278.025C269.661 278.062 269.703 278.114 269.726 278.178C269.746 278.231 269.751 278.287 269.743 278.339L271.893 283.434L297.44 289.884C298.353 290.115 299.059 290.839 299.267 291.757C299.297 291.891 299.316 292.025 299.324 292.158ZM298.932 293.66C298.59 294.193 298.046 294.597 297.379 294.748L235.752 308.693C236.854 310.511 239.017 311.429 241.112 310.924L295.433 297.828C297.436 297.345 298.811 295.614 298.932 293.66ZM228.377 293.759L235.306 308.125L297.235 294.112C298.231 293.886 298.856 292.897 298.63 291.901C298.477 291.222 297.955 290.687 297.28 290.517L271.576 284.027C271.477 284.002 271.395 283.932 271.356 283.838L269.196 278.721L228.377 293.759ZM244.173 219.441L240.067 209.714C236.94 202.307 229.682 197.492 221.643 197.492C213.095 197.492 204.895 200.879 198.838 206.91L196.29 209.448C213.979 223.086 229.926 226.402 244.173 219.441V219.441Z" fill="#EB5757"/>
<path fill-rule="evenodd" clip-rule="evenodd" d="M121.772 168.913L40.4383 220.855C21.9379 232.67 15.1423 256.419 24.5929 276.232L30.4255 288.459C40.7662 310.138 66.7232 319.33 88.4021 308.989C89.5598 308.437 90.6925 307.833 91.7969 307.181L129.005 285.203C135.934 281.11 141.592 275.174 145.348 268.057L145.8 267.201C149.693 259.825 149.815 251.03 146.128 243.549L136.993 225.015C123.435 235.124 116.114 242.083 115.031 245.891C114.065 249.286 103.01 256.282 81.8655 266.878C77.2796 269.176 71.6976 267.565 69.0403 263.178C66.9059 259.654 68.0326 255.066 71.5568 252.932C71.9597 252.688 72.3848 252.483 72.8263 252.319L112.421 237.627" fill="#FFD1D1"/>
<path fill-rule="evenodd" clip-rule="evenodd" d="M23.4844 274.159C24.5717 277.203 29.2927 286.734 31.0952 289.815C32.9915 293.057 35.0093 296.121 37.6187 299.166C40.2027 302.18 43.6793 305.161 48.926 307.864C50.6815 308.768 52.5661 309.71 54.5797 310.69C53.2254 299.262 51.7032 291.289 50.0133 286.771C48.6433 283.108 47.2498 279.437 45.2294 276.551C40.1556 269.303 31.9548 261.976 20.6271 254.571C19.6327 259.512 20.5851 266.041 23.4844 274.159Z" fill="#FFAFAF"/>
<path fill-rule="evenodd" clip-rule="evenodd" d="M116.553 241.759L116.988 247.413C122.22 257.317 125.437 263.297 126.639 265.351C127.903 267.512 130.412 272.84 134.166 281.335C138.373 277.691 141.707 273.922 144.169 270.027C146.63 266.133 148.153 262.219 148.735 258.285C149.315 253.066 147.865 247.195 144.386 240.672C142.651 237.418 140.114 231.982 136.776 224.363C127.313 229.374 120.717 233.505 116.988 236.758C113.258 240.01 113.113 241.677 116.553 241.759Z" fill="white"/>
<path d="M145.679 243.494C149.32 250.881 149.199 259.566 145.355 266.849L144.903 267.705C141.175 274.769 135.56 280.66 128.683 284.723L91.3417 306.78C90.2858 307.403 89.2039 307.982 88.0987 308.513C66.6159 318.846 40.8241 309.807 30.4911 288.325L24.8745 276.647C15.4841 257.124 22.0203 233.665 40.1532 221.81L120.645 169.186C120.796 169.088 120.838 168.886 120.74 168.735C120.641 168.584 120.439 168.542 120.288 168.64L39.7962 221.264C21.3893 233.298 14.7543 257.112 24.2866 276.93L29.9032 288.607C40.3924 310.415 66.574 319.59 88.3815 309.101C89.5033 308.561 90.6017 307.974 91.6735 307.341L129.014 285.284C135.996 281.161 141.696 275.181 145.48 268.01L145.932 267.153C149.874 259.685 149.997 250.78 146.264 243.205L137.13 224.672C137.052 224.514 136.864 224.447 136.704 224.518C125.889 229.367 119.253 232.996 116.759 235.437C115.619 236.553 114.987 237.964 114.728 239.675C114.567 240.741 114.556 241.662 114.621 243.31C114.679 244.758 114.675 245.202 114.561 245.602C113.635 248.857 102.566 255.862 81.5632 266.387C77.1293 268.608 71.7323 267.052 69.1631 262.809C67.1536 259.491 68.2144 255.173 71.5324 253.163C71.941 252.916 72.3738 252.71 72.8241 252.551L114.052 237.935C114.222 237.875 114.311 237.688 114.251 237.518C114.191 237.349 114.004 237.26 113.834 237.32L72.6061 251.936C72.114 252.11 71.641 252.335 71.1945 252.605C67.5683 254.801 66.409 259.521 68.6052 263.147C71.3505 267.68 77.1175 269.344 81.8554 266.97C103.141 256.303 114.183 249.316 115.188 245.78C115.33 245.282 115.335 244.828 115.273 243.284C115.209 241.676 115.22 240.786 115.373 239.772C115.612 238.192 116.187 236.911 117.216 235.903C119.612 233.558 126.113 229.994 136.684 225.242L145.679 243.494Z" fill="#EB5757"/>
<path fill-rule="evenodd" clip-rule="evenodd" d="M147.927 173.219C140.329 156.338 135.763 145.124 134.228 139.576C129.254 121.592 125.782 105.905 107.202 105.905C88.6218 105.905 73.5596 120.967 73.5596 139.548C73.5596 144.841 78.126 161.811 87.2589 190.459C100.728 190.405 111.626 189.734 119.951 188.447C128.276 187.159 137.601 182.083 147.927 173.219Z" fill="#FFD1D1" stroke="#EB5757" stroke-width="1.5" stroke-linecap="round" stroke-linejoin="round"/>
<path fill-rule="evenodd" clip-rule="evenodd" d="M147.866 173.167C140.267 156.286 135.701 145.072 134.166 139.524C129.192 121.54 125.721 105.853 107.141 105.853C88.5603 105.853 73.498 120.916 73.498 139.496C73.498 144.789 78.0645 161.759 87.1974 190.407C100.667 190.353 111.564 189.682 119.889 188.395C128.214 187.107 137.54 182.032 147.866 173.167Z" fill="#FFD1D1"/>
<path fill-rule="evenodd" clip-rule="evenodd" d="M147.866 173.167C140.267 156.286 135.701 145.072 134.166 139.524C129.192 121.54 125.721 105.853 107.141 105.853C88.5603 105.853 73.498 120.916 73.498 139.496C73.498 144.789 78.0645 161.759 87.1974 190.407C100.667 190.353 111.564 189.682 119.889 188.395C128.214 187.107 137.54 182.032 147.866 173.167Z" stroke="#EB5757" stroke-width="1.5" stroke-linecap="round" stroke-linejoin="round"/>
<path d="M148.163 173.033C140.572 156.168 136.009 144.963 134.481 139.437C134.28 138.713 133.394 135.484 133.155 134.622C130.228 124.06 128.203 118.667 124.942 114.136C120.825 108.414 115.193 105.527 107.14 105.527C88.3799 105.527 73.1716 120.735 73.1716 139.496C73.1716 144.839 77.7384 161.811 86.8864 190.506C86.9296 190.642 87.056 190.733 87.1984 190.733C100.683 190.679 111.596 190.007 119.939 188.717C128.333 187.419 137.71 182.315 148.078 173.414C148.188 173.32 148.222 173.165 148.163 173.033ZM119.839 188.073C111.582 189.35 100.779 190.019 87.4352 190.08C78.3658 161.617 73.824 144.724 73.824 139.496C73.824 121.096 88.7402 106.179 107.14 106.179C114.983 106.179 120.418 108.965 124.413 114.517C127.613 118.965 129.62 124.308 132.526 134.796C132.765 135.657 133.651 138.886 133.852 139.611C135.386 145.156 139.923 156.306 147.468 173.078C137.258 181.808 128.046 186.803 119.839 188.073Z" fill="#EB5757"/>
<path d="M91.4044 154.978C91.4044 154.978 109.57 162.111 137.171 152.411C137.645 152.245 138.166 151.947 138.733 151.517C137.306 148.662 136.436 146.705 136.124 145.646C134.851 141.335 134.734 138.597 133.297 135.861C132.368 134.093 132.043 131.075 131.122 128.25C130.625 126.726 129.683 124.334 128.295 121.075C126.916 118.337 125.974 116.525 125.469 115.638C124.695 114.28 124.694 112.955 123.685 113.102C118.23 113.896 112.347 117.434 106.037 123.716C91.3728 138.316 91.4044 154.978 91.4044 154.978Z" fill="#EB5757"/>
<path fill-rule="evenodd" clip-rule="evenodd" d="M103.071 126.946C104.593 125.206 105.436 124.117 106.768 122.814C108.1 121.511 109.812 119.987 112.857 117.813C114.451 122.017 116.046 126.583 118.075 132.817C121.12 142.167 116.299 143.641 110.465 137.383C106.575 133.211 104.255 129.877 103.071 126.946ZM120.319 126.405C121.404 126.481 121.995 131.187 122.326 131.995C122.511 132.445 122.296 132.96 121.845 133.145C121.434 133.314 120.961 133.149 120.743 132.762C119.472 130.506 118.842 129.153 118.851 128.7C118.874 127.557 119.235 126.329 120.319 126.405Z" fill="white"/>
<path d="M114.223 236.758C128.874 236.758 140.752 224.88 140.752 210.229C140.752 195.577 128.874 183.7 114.223 183.7C99.5712 183.7 87.6938 195.577 87.6938 210.229C87.6938 224.88 99.5712 236.758 114.223 236.758Z" fill="#EB5757"/>
<path d="M91.7086 152.75C89.4152 142.574 92.7836 132.898 101.843 123.695C110.904 114.49 117.306 110.03 120.938 110.31C121.118 110.324 120.888 110.382 120.902 110.202C120.916 110.022 120.864 109.998 120.684 109.985C120.581 109.977 120.779 109.647 120.671 109.646C116.735 109.603 110.338 114.136 101.378 123.238C92.1717 132.59 88.7266 142.486 91.0722 152.894C91.1118 153.07 91.2864 153.18 91.4621 153.14C91.6378 153.101 91.7482 152.926 91.7086 152.75Z" fill="#EB5757"/>
<path fill-rule="evenodd" clip-rule="evenodd" d="M97.0442 230.887L106.829 205.864L131.371 198.751C132.294 198.483 133.259 199.014 133.526 199.937C133.687 200.493 133.562 201.092 133.191 201.536L119.224 218.274L118.075 236.758L97.0442 230.887Z" fill="white"/>
<path fill-rule="evenodd" clip-rule="evenodd" d="M106.775 205.88C103.436 209.526 101.314 211.924 100.407 213.071C95.6464 219.097 95.8217 221.375 98.0768 222.841C102.426 225.668 106.931 231.337 109.975 226.118C112.004 222.639 110.938 215.893 106.775 205.88Z" fill="#FFD1D1"/>
<path d="M106.589 205.644C106.75 205.468 107.039 205.519 107.13 205.739C111.331 215.842 112.41 222.669 110.311 226.267C109.114 228.319 107.59 228.937 105.721 228.342C104.372 227.912 103.35 227.214 100.636 225.081C99.9866 224.57 99.6063 224.276 99.1977 223.972C98.7469 223.636 98.3404 223.35 97.9535 223.099C95.2199 221.322 95.7188 218.533 100.206 212.853C101.119 211.697 103.245 209.297 106.589 205.644ZM109.748 225.938C111.676 222.632 110.687 216.125 106.724 206.463C103.59 209.891 101.586 212.159 100.718 213.258C96.4363 218.677 96.0104 221.058 98.309 222.552C98.7085 222.811 99.126 223.105 99.5871 223.448C100.002 223.757 100.386 224.054 101.04 224.568C103.679 226.643 104.677 227.325 105.919 227.72C107.492 228.221 108.702 227.731 109.748 225.938ZM119.982 217.436C120.084 217.288 120.288 217.251 120.436 217.354C120.584 217.457 120.62 217.66 120.517 217.808C119.254 219.628 118.091 220.558 116.988 220.558C116.808 220.558 116.662 220.412 116.662 220.231C116.662 220.051 116.808 219.905 116.988 219.905C117.817 219.905 118.829 219.096 119.982 217.436Z" fill="#EB5757"/>
<path d="M90.2415 158.911C92.0429 158.911 93.5032 157.45 93.5032 155.649C93.5032 153.848 92.0429 152.387 90.2415 152.387C88.4401 152.387 86.9797 153.848 86.9797 155.649C86.9797 157.45 88.4401 158.911 90.2415 158.911Z" fill="white"/>
<path d="M90.0855 159.237C92.067 159.237 93.6734 157.631 93.6734 155.649C93.6734 153.667 92.067 152.061 90.0855 152.061C88.1039 152.061 86.4976 153.667 86.4976 155.649C86.4976 157.631 88.1039 159.237 90.0855 159.237ZM90.0855 158.585C88.4642 158.585 87.1499 157.27 87.1499 155.649C87.1499 154.028 88.4642 152.713 90.0855 152.713C91.7067 152.713 93.021 154.028 93.021 155.649C93.021 157.27 91.7067 158.585 90.0855 158.585Z" fill="#EB5757"/>
<path d="M90.0855 157.497C91.2175 157.497 92.1513 156.68 92.1513 155.649C92.1513 154.618 91.2175 153.801 90.0855 153.801C88.9536 153.801 88.0198 154.618 88.0198 155.649C88.0198 156.68 88.9536 157.497 90.0855 157.497ZM90.0855 156.845C89.296 156.845 88.6721 156.299 88.6721 155.649C88.6721 154.999 89.296 154.453 90.0855 154.453C90.8751 154.453 91.499 154.999 91.499 155.649C91.499 156.299 90.8751 156.845 90.0855 156.845Z" fill="#EB5757"/>
<path fill-rule="evenodd" clip-rule="evenodd" d="M118.075 235.236L116.832 247.413L98.3487 258.285L83.7181 265.896L76.5422 256.328C82.5421 255.98 85.9488 255.038 86.7624 253.501C89.1704 248.952 92.5771 241.486 96.9825 231.104L118.075 235.236Z" fill="white"/>
<path d="M118.138 234.698C118.303 234.73 118.417 234.884 118.4 235.051L117.156 247.228C117.146 247.332 117.087 247.424 116.997 247.476L98.4993 258.357L83.8686 265.968C83.727 266.041 83.5529 266.002 83.4571 265.874L76.2813 256.306C76.1252 256.098 76.2636 255.8 76.5234 255.785C82.4019 255.444 85.7381 254.522 86.4741 253.131C88.8767 248.592 92.2802 241.134 96.6822 230.759C96.7425 230.617 96.8939 230.537 97.0452 230.566L118.138 234.698ZM97.1794 231.257C92.8206 241.521 89.4451 248.913 87.0506 253.436C86.1893 255.064 82.9118 256.017 77.166 256.399L83.813 265.261L98.1834 257.787L116.524 246.998L117.72 235.281L97.1794 231.257ZM116.667 246.914L116.507 247.162L116.524 246.998L116.667 246.914Z" fill="#EB5757"/>
<path fill-rule="evenodd" clip-rule="evenodd" d="M38.7061 146.299C36.5444 146.299 34.792 144.546 34.792 142.385C34.792 140.223 36.5444 138.47 38.7061 138.47C40.8678 138.47 42.6202 140.223 42.6202 142.385C42.6202 144.546 40.8678 146.299 38.7061 146.299ZM76.9772 156.084L78.0029 159.998C77.7568 160.081 77.5132 160.172 77.2724 160.269C70.3964 163.052 67.0784 170.883 69.8616 177.759L71.9143 182.83L68.0002 185.005L65.6847 177.466C63.187 169.335 67.0985 160.612 74.8312 157.067L76.9772 156.084Z" fill="white"/>
<path d="M47.7265 160.698C47.7364 160.631 47.7253 160.563 47.6947 160.503L40.3014 145.934C40.2199 145.773 40.0236 145.709 39.863 145.79C39.7023 145.872 39.6382 146.068 39.7197 146.229L47.066 160.705L46.2114 166.474C46.1895 166.621 46.2705 166.765 46.4081 166.822L52.3719 169.318L62.1206 187.435C62.206 187.593 62.4038 187.653 62.5624 187.567C62.7211 187.482 62.7805 187.284 62.6951 187.125L52.8916 168.907C52.8561 168.842 52.7992 168.79 52.7303 168.761L46.8939 166.318L47.7265 160.698Z" fill="#EB5757"/>
<path d="M38.5501 146.625C36.2082 146.625 34.3098 144.726 34.3098 142.385C34.3098 140.043 36.2082 138.144 38.5501 138.144C40.8919 138.144 42.7903 140.043 42.7903 142.385C42.7903 144.726 40.8919 146.625 38.5501 146.625ZM38.5501 145.972C40.5316 145.972 42.138 144.366 42.138 142.385C42.138 140.403 40.5316 138.797 38.5501 138.797C36.5685 138.797 34.9622 140.403 34.9622 142.385C34.9622 144.366 36.5685 145.972 38.5501 145.972ZM76.6853 155.787C76.8695 155.703 77.0853 155.805 77.1367 156.001L78.1624 159.915C78.2058 160.081 78.1137 160.252 77.9515 160.307C77.7114 160.388 77.4737 160.477 77.2388 160.572C70.5297 163.287 67.2924 170.927 70.0079 177.636L72.0606 182.708C72.1224 182.86 72.0607 183.035 71.9167 183.115L68.0026 185.29C67.8213 185.391 67.5933 185.299 67.5324 185.1L65.2169 177.562C62.6712 169.275 66.6579 160.383 74.5393 156.771L76.6853 155.787ZM74.8111 157.364C67.2271 160.84 63.3909 169.396 65.8405 177.371L68.0378 184.524L71.3477 182.685L69.4032 177.881C66.5525 170.838 69.951 162.818 76.994 159.967C77.1467 159.905 77.3004 159.846 77.4551 159.79L76.6041 156.542L74.8111 157.364Z" fill="#EB5757"/>
<path d="M46.8306 274.303C52.5266 282.068 56.1551 294.476 57.7315 311.53L57.082 311.59C55.4924 294.394 51.8118 281.981 46.0565 274.355C41.3519 268.122 36.3004 262.988 31.0994 258.849C27.2821 255.81 23.7101 253.559 20.5813 251.989L20.8739 251.406C24.0419 252.995 27.6519 255.271 31.5057 258.338C36.6966 262.469 41.7375 267.581 46.4355 273.775L68.3414 261.912C68.4998 261.827 68.6977 261.886 68.7835 262.044C68.8693 262.202 68.8104 262.4 68.652 262.486L46.8306 274.303ZM77.9485 268.136C77.8621 267.978 77.9203 267.78 78.0785 267.693C78.2366 267.607 78.4347 267.665 78.521 267.823L97.9212 303.358C98.0075 303.516 97.9493 303.715 97.7912 303.801C97.6331 303.887 97.435 303.829 97.3486 303.671L77.9485 268.136ZM70.8303 253.14C70.9097 253.302 70.843 253.497 70.6813 253.577C70.5196 253.656 70.3242 253.589 70.2448 253.428L51.0254 214.287C50.946 214.125 51.0127 213.93 51.1744 213.85C51.3361 213.771 51.5316 213.837 51.611 213.999L70.8303 253.14Z" fill="#EB5757"/>
<path d="M87.4146 190.658L97.0439 210.229" stroke="#EB5757" stroke-width="1.5" stroke-linecap="round" stroke-linejoin="round"/>
<path d="M116.94 247.304L134.166 281.184" stroke="#EB5757" stroke-width="1.5" stroke-linecap="round" stroke-linejoin="round"/>
<path d="M388.929 92.2747C389.102 92.2259 389.282 92.3268 389.331 92.5002C389.38 92.6736 389.279 92.8538 389.106 92.9026L361.428 100.699C354.665 102.604 350.727 109.63 352.632 116.393C353.076 117.969 353.82 119.444 354.824 120.738L358.882 125.973C362.817 131.047 361.893 138.35 356.819 142.285C354.54 144.052 351.687 144.909 348.812 144.69L334.855 143.627C327.77 143.087 320.852 145.959 316.231 151.357L309.461 159.265C309.344 159.402 309.138 159.418 309.001 159.3C308.864 159.183 308.848 158.977 308.965 158.841L315.735 150.933C320.491 145.376 327.612 142.421 334.905 142.977L348.861 144.039C351.575 144.246 354.268 143.437 356.419 141.769C361.209 138.056 362.081 131.162 358.367 126.372L354.308 121.138C353.253 119.778 352.471 118.226 352.004 116.57C350.002 109.46 354.142 102.074 361.251 100.071L388.929 92.2747ZM340.961 186.744V181.091C340.961 180.85 341.155 180.656 341.396 180.656C341.636 180.656 341.831 180.85 341.831 181.091V186.744H347.484C347.724 186.744 347.919 186.939 347.919 187.179C347.919 187.419 347.724 187.614 347.484 187.614H341.831V193.268C341.831 193.508 341.636 193.703 341.396 193.703C341.155 193.703 340.961 193.508 340.961 193.268V187.614H335.307C335.067 187.614 334.872 187.419 334.872 187.179C334.872 186.939 335.067 186.744 335.307 186.744H340.961ZM137.428 47.5766V41.9229C137.428 41.6827 137.623 41.488 137.863 41.488C138.103 41.488 138.298 41.6827 138.298 41.9229V47.5766H143.952C144.192 47.5766 144.386 47.7713 144.386 48.0115C144.386 48.2517 144.192 48.4464 143.952 48.4464H138.298V54.1001C138.298 54.3403 138.103 54.535 137.863 54.535C137.623 54.535 137.428 54.3403 137.428 54.1001V48.4464H131.774C131.534 48.4464 131.339 48.2517 131.339 48.0115C131.339 47.7713 131.534 47.5766 131.774 47.5766H137.428ZM321.825 72.8008V67.1471C321.825 66.9069 322.02 66.7122 322.26 66.7122C322.5 66.7122 322.695 66.9069 322.695 67.1471V72.8008H328.349C328.589 72.8008 328.784 72.9955 328.784 73.2357C328.784 73.4758 328.589 73.6706 328.349 73.6706H322.695V79.3242C322.695 79.5644 322.5 79.7591 322.26 79.7591C322.02 79.7591 321.825 79.5644 321.825 79.3242V73.6706H316.172C315.931 73.6706 315.737 73.4758 315.737 73.2357C315.737 72.9955 315.931 72.8008 316.172 72.8008H321.825ZM4.78389 186.744V182.395C4.78389 182.155 4.9786 181.96 5.21879 181.96C5.45898 181.96 5.65369 182.155 5.65369 182.395V186.744H10.0027C10.2429 186.744 10.4376 186.939 10.4376 187.179C10.4376 187.419 10.2429 187.614 10.0027 187.614H5.65369V191.963C5.65369 192.203 5.45898 192.398 5.21879 192.398C4.9786 192.398 4.78389 192.203 4.78389 191.963V187.614H0.434899C0.194711 187.614 0 187.419 0 187.179C0 186.939 0.194711 186.744 0.434899 186.744H4.78389ZM271.594 123.684V119.552C271.594 119.312 271.789 119.118 272.029 119.118C272.269 119.118 272.464 119.312 272.464 119.552V123.684H276.596C276.836 123.684 277.031 123.879 277.031 124.119C277.031 124.359 276.836 124.554 276.596 124.554H272.464V128.685C272.464 128.925 272.269 129.12 272.029 129.12C271.789 129.12 271.594 128.925 271.594 128.685V124.554H267.463C267.223 124.554 267.028 124.359 267.028 124.119C267.028 123.879 267.223 123.684 267.463 123.684H271.594ZM161.13 110.854V106.723C161.13 106.483 161.325 106.288 161.565 106.288C161.805 106.288 162 106.483 162 106.723V110.854H166.131C166.372 110.854 166.566 111.049 166.566 111.289C166.566 111.53 166.372 111.724 166.131 111.724H162V115.856C162 116.096 161.805 116.291 161.565 116.291C161.325 116.291 161.13 116.096 161.13 115.856V111.724H156.999C156.758 111.724 156.564 111.53 156.564 111.289C156.564 111.049 156.758 110.854 156.999 110.854H161.13Z" fill="#EB5757"/>
<path fill-rule="evenodd" clip-rule="evenodd" d="M118.366 205.654C116.253 204.14 114.525 203.762 113.181 204.519C111.164 205.654 108.572 207.926 110.012 210.765C111.452 213.604 112.604 215.876 114.045 215.876C115.485 215.876 118.078 216.16 119.518 213.037C120.478 210.954 120.094 208.494 118.366 205.654Z" fill="#FFD1D1"/>
<path fill-rule="evenodd" clip-rule="evenodd" d="M118.248 206.96C118.099 208.5 117.586 209.493 116.709 209.937C115.942 210.326 114.743 210.553 113.111 210.617C112.391 210.645 111.785 210.084 111.756 209.364C111.747 209.118 111.807 208.873 111.931 208.66C112.828 207.109 113.623 206.158 114.317 205.806C115.045 205.437 115.995 205.351 117.166 205.548C117.841 205.662 118.314 206.279 118.248 206.96Z" fill="white"/>
<path d="M117.707 207.476C117.488 207.82 117.053 208.054 116.553 208.054C115.833 208.054 115.249 207.568 115.249 206.967C115.249 206.381 115.805 205.903 116.502 205.881C115.605 205.784 114.875 205.884 114.309 206.171C113.687 206.486 112.925 207.397 112.057 208.897C111.965 209.057 111.919 209.24 111.927 209.425C111.948 209.965 112.403 210.386 112.943 210.365C114.532 210.302 115.689 210.084 116.406 209.721C117.08 209.379 117.518 208.64 117.707 207.476ZM117.094 205.977C117.202 206.012 117.302 206.065 117.389 206.132C117.3 206.07 117.201 206.018 117.094 205.977ZM118.416 207.066C118.258 208.706 117.693 209.799 116.701 210.302C115.884 210.717 114.643 210.951 112.968 211.017C112.068 211.052 111.31 210.351 111.275 209.451C111.263 209.143 111.338 208.837 111.493 208.57C112.419 206.969 113.249 205.977 114.014 205.589C114.811 205.184 115.83 205.092 117.064 205.3C117.908 205.443 118.499 206.214 118.416 207.066Z" fill="#EB5757"/>
<path fill-rule="evenodd" clip-rule="evenodd" d="M131.992 198.6C130.974 198.345 129.901 198.52 128.771 199.124L128.771 199.124C128.56 199.238 128.48 199.501 128.593 199.713C128.617 199.758 128.648 199.798 128.686 199.832C129.117 200.218 129.639 200.437 130.252 200.49C131.064 200.559 132.006 200.559 133.079 200.49C133.514 199.52 133.151 198.89 131.992 198.6Z" fill="#FFD1D1"/>
<path d="M132.288 198.237C131.187 197.962 130.032 198.15 128.835 198.791C128.464 198.989 128.325 199.45 128.523 199.821C128.565 199.899 128.62 199.969 128.686 200.028C129.171 200.463 129.76 200.71 130.442 200.769C131.271 200.839 132.229 200.839 133.318 200.769C133.438 200.761 133.545 200.687 133.594 200.577C134.117 199.411 133.635 198.574 132.288 198.237ZM130.497 200.119C129.954 200.072 129.499 199.881 129.122 199.543C129.112 199.534 129.104 199.524 129.098 199.513C129.07 199.46 129.09 199.394 129.143 199.366C130.204 198.798 131.196 198.636 132.13 198.87C133.025 199.094 133.302 199.469 133.071 200.131C132.098 200.186 131.24 200.182 130.497 200.119Z" fill="#EB5757"/>
<path fill-rule="evenodd" clip-rule="evenodd" d="M402.281 72.8008L397.932 73.888L409.022 84.7605L410.327 80.4115" fill="white"/>
<path d="M235.498 294.164C237.299 294.164 238.76 292.704 238.76 290.903C238.76 289.101 237.299 287.641 235.498 287.641C233.696 287.641 232.236 289.101 232.236 290.903C232.236 292.704 233.696 294.164 235.498 294.164Z" fill="white"/>
<path d="M235.342 294.49C237.323 294.49 238.93 292.884 238.93 290.903C238.93 288.921 237.323 287.315 235.342 287.315C233.36 287.315 231.754 288.921 231.754 290.903C231.754 292.884 233.36 294.49 235.342 294.49ZM235.342 293.838C233.721 293.838 232.406 292.524 232.406 290.903C232.406 289.281 233.721 287.967 235.342 287.967C236.963 287.967 238.277 289.281 238.277 290.903C238.277 292.524 236.963 293.838 235.342 293.838Z" fill="#EB5757"/>
<path d="M284.642 242.411C286.443 242.411 287.903 240.951 287.903 239.15C287.903 237.348 286.443 235.888 284.642 235.888C282.84 235.888 281.38 237.348 281.38 239.15C281.38 240.951 282.84 242.411 284.642 242.411Z" fill="white"/>
<path d="M284.641 242.738C286.623 242.738 288.229 241.131 288.229 239.15C288.229 237.168 286.623 235.562 284.641 235.562C282.66 235.562 281.053 237.168 281.053 239.15C281.053 241.131 282.66 242.738 284.641 242.738ZM284.641 242.085C283.02 242.085 281.706 240.771 281.706 239.15C281.706 237.528 283.02 236.214 284.641 236.214C286.263 236.214 287.577 237.528 287.577 239.15C287.577 240.771 286.263 242.085 284.641 242.085Z" fill="#EB5757"/>
<path d="M235.342 292.751C236.474 292.751 237.408 291.934 237.408 290.903C237.408 289.871 236.474 289.054 235.342 289.054C234.21 289.054 233.276 289.871 233.276 290.903C233.276 291.934 234.21 292.751 235.342 292.751ZM235.342 292.099C234.552 292.099 233.928 291.553 233.928 290.903C233.928 290.252 234.552 289.707 235.342 289.707C236.131 289.707 236.755 290.252 236.755 290.903C236.755 291.553 236.131 292.099 235.342 292.099Z" fill="#EB5757"/>
<path d="M284.641 240.998C285.773 240.998 286.707 240.181 286.707 239.15C286.707 238.118 285.773 237.301 284.641 237.301C283.51 237.301 282.576 238.118 282.576 239.15C282.576 240.181 283.51 240.998 284.641 240.998ZM284.641 240.346C283.852 240.346 283.228 239.8 283.228 239.15C283.228 238.5 283.852 237.954 284.641 237.954C285.431 237.954 286.055 238.5 286.055 239.15C286.055 239.8 285.431 240.346 284.641 240.346Z" fill="#EB5757"/>
<path d="M93.1277 155.89C96.5438 159.009 104.004 160.399 115.536 160.107C127.044 159.815 135.216 158.064 140.063 154.833C140.213 154.733 140.253 154.531 140.153 154.381C140.053 154.231 139.851 154.19 139.701 154.29C134.98 157.438 126.915 159.166 115.519 159.454C104.146 159.742 96.82 158.378 93.5676 155.408C93.4346 155.287 93.2282 155.296 93.1068 155.429C92.9853 155.562 92.9947 155.768 93.1277 155.89Z" fill="#EB5757"/>
<path fill-rule="evenodd" clip-rule="evenodd" d="M468.94 8.9137C458.139 12.6299 447.129 19.2221 435.911 28.6902C424.341 38.4566 411.86 51.8642 398.468 68.9131L413.518 83.446C430.189 69.2828 443.153 56.3415 452.409 44.6221C461.386 33.2562 467.639 22.0732 471.168 11.0734C471.368 10.449 471.196 9.76502 470.724 9.30951C470.251 8.85266 469.562 8.69973 468.94 8.9137Z" fill="#FFD1D1"/>
<path fill-rule="evenodd" clip-rule="evenodd" d="M451.86 17.1337L463.385 27.7887C469.618 16.4814 472.083 10.2478 470.778 9.08808C469.474 7.92835 463.167 10.6102 451.86 17.1337Z" fill="#FFAFAF"/>
<path fill-rule="evenodd" clip-rule="evenodd" d="M407.179 83.1926L400.324 91.5014L400.977 85.1953L395.54 86.5L397.715 81.7162H391.409L399.31 75.4782L397.288 73.4954L402.202 72.2668L402.361 72.8997L398.577 73.8456L408.865 83.9321L410.015 80.1003L410.639 80.2877L409.18 85.1539L407.179 83.1926Z" fill="#EB5757"/>
<path d="M435.695 28.2947C424.105 38.0768 411.609 51.5001 398.206 68.5653C398.102 68.6968 398.115 68.8852 398.235 69.0014L413.285 83.5343C413.405 83.6508 413.595 83.6568 413.723 83.5483C430.409 69.3721 443.388 56.4161 452.659 44.6779C461.659 33.2829 467.931 22.0661 471.472 11.0267C471.71 10.284 471.506 9.47037 470.945 8.92854C470.383 8.3865 469.565 8.20508 468.827 8.45894C457.985 12.1892 446.941 18.8019 435.695 28.2947ZM398.9 68.7367C412.21 51.8142 424.616 38.4995 436.115 28.7932C447.304 19.3495 458.279 12.7779 469.04 9.0758C469.546 8.90173 470.106 9.02613 470.491 9.3978C470.874 9.76699 471.013 10.3213 470.851 10.8274C467.335 21.7877 461.101 32.9367 452.147 44.2736C442.947 55.9214 430.073 68.7842 413.525 82.8597L398.9 68.7367Z" fill="#EB5757"/>
<path fill-rule="evenodd" clip-rule="evenodd" d="M420.848 45.837L418.908 49.2908L398.691 68.7816L383.56 69.6816L382.276 68.4422L420.848 45.837ZM436.111 60.4521L414.183 99.4125L412.921 98.1509L413.557 83.0065L432.692 62.4522L436.111 60.4521Z" fill="white"/>
<path d="M420.471 45.7106C420.758 45.5423 421.083 45.8616 420.92 46.1517L418.98 49.6055L418.922 49.6806L398.705 69.1714C398.649 69.2254 398.576 69.2576 398.498 69.2622L383.367 70.1621C383.276 70.1676 383.187 70.1346 383.121 70.0712L381.838 68.8318C381.682 68.6818 381.713 68.4249 381.899 68.3157L420.471 45.7106ZM382.6 68.6612L383.471 69.5024L398.339 68.6181L418.435 49.2442L419.762 46.8824L382.6 68.6612ZM418.47 49.2109L418.412 49.286L418.435 49.2442L418.47 49.2109ZM435.735 60.3255C436.022 60.1575 436.347 60.4771 436.184 60.7671L414.255 99.7275C414.149 99.9157 413.893 99.9509 413.74 99.7982L412.479 98.5365C412.414 98.472 412.38 98.3834 412.383 98.2922L413.019 83.1478C413.022 83.0701 413.053 82.9962 413.106 82.9393L432.241 62.3849L432.315 62.3256L435.735 60.3255ZM432.686 62.8645L413.666 83.2956L413.041 98.1765L413.897 99.0329L435.024 61.4968L432.686 62.8645Z" fill="#EB5757"/>
<path d="M445.336 42.3578C448.939 42.3578 451.86 39.4372 451.86 35.8343C451.86 32.2315 448.939 29.3109 445.336 29.3109C441.734 29.3109 438.813 32.2315 438.813 35.8343C438.813 39.4372 441.734 42.3578 445.336 42.3578Z" fill="white"/>
<path d="M445.424 42.5318C449.207 42.5318 452.274 39.4651 452.274 35.6821C452.274 31.8992 449.207 28.8325 445.424 28.8325C441.641 28.8325 438.574 31.8992 438.574 35.6821C438.574 39.4651 441.641 42.5318 445.424 42.5318ZM445.424 41.8795C442.001 41.8795 439.227 39.1048 439.227 35.6821C439.227 32.2595 442.001 29.4848 445.424 29.4848C448.847 29.4848 451.621 32.2595 451.621 35.6821C451.621 39.1048 448.847 41.8795 445.424 41.8795Z" fill="#EB5757"/>
<path d="M445.336 39.2048C443.475 39.2048 441.966 37.6958 441.966 35.8343C441.966 33.9729 443.475 32.4639 445.336 32.4639C447.198 32.4639 448.707 33.9729 448.707 35.8343C448.707 37.6958 447.198 39.2048 445.336 39.2048ZM445.336 38.5525C446.837 38.5525 448.054 37.3355 448.054 35.8343C448.054 34.3332 446.837 33.1162 445.336 33.1162C443.835 33.1162 442.618 34.3332 442.618 35.8343C442.618 37.3355 443.835 38.5525 445.336 38.5525ZM451.637 17.1544L452.083 16.678L463.707 27.5505L463.262 28.0269L451.637 17.1544Z" fill="#EB5757"/>
<path d="M223.799 155.373C214.807 161.034 208.614 166.426 205.218 171.56C201.825 176.69 198.769 185.348 196.039 197.545L196.675 197.688C199.39 185.561 202.422 176.969 205.762 171.92C209.098 166.876 215.226 161.541 224.147 155.925L223.799 155.373Z" fill="#EB5757"/>
<path fill-rule="evenodd" clip-rule="evenodd" d="M97.8048 229.168C101.311 230.415 104.554 231.362 107.535 232.01C110.452 232.644 113.879 233.192 117.817 233.654C118.652 233.751 119.25 234.508 119.152 235.343C119.145 235.407 119.133 235.471 119.117 235.534L119.075 235.705C118.859 236.57 118.024 237.132 117.142 237.006C113.481 236.486 110.061 235.908 106.883 235.272C103.659 234.627 100.404 233.514 97.1195 231.932C96.4038 231.587 96.0286 230.787 96.2213 230.017C96.3838 229.367 97.0425 228.971 97.6925 229.134C97.7305 229.143 97.7679 229.155 97.8048 229.168Z" fill="white"/>
<path d="M110.692 233.234C109.578 233.038 108.522 232.831 107.525 232.614C106.31 232.35 105.045 232.009 103.728 231.592L103.258 233.628C104.574 234.021 105.868 234.345 107.139 234.599C108.149 234.801 109.183 234.997 110.241 235.187L110.692 233.234ZM111.335 233.346L110.884 235.302C112.952 235.665 115.111 236.007 117.362 236.327C117.914 236.406 118.435 236.054 118.57 235.514L118.613 235.343C118.622 235.307 118.628 235.271 118.633 235.234C118.689 234.756 118.347 234.324 117.87 234.268C115.511 233.992 113.333 233.684 111.335 233.346ZM103.105 231.39C101.409 230.827 99.6311 230.141 97.7699 229.33C97.729 229.312 97.6867 229.298 97.6434 229.287C97.213 229.18 96.7772 229.442 96.6699 229.872L96.6014 230.147C96.4728 230.662 96.7359 231.196 97.2235 231.407C99.0666 232.207 100.87 232.883 102.633 233.437L103.105 231.39ZM98.0304 228.732C101.546 230.263 104.757 231.345 107.664 231.977C110.581 232.611 114.008 233.159 117.946 233.62C118.781 233.718 119.379 234.474 119.281 235.31C119.273 235.374 119.262 235.438 119.246 235.501L119.203 235.672C118.988 236.537 118.153 237.099 117.27 236.973C113.609 236.453 110.19 235.874 107.011 235.239C103.799 234.596 100.45 233.519 96.9638 232.006C96.1837 231.667 95.7627 230.814 95.9684 229.989L96.0369 229.714C96.2314 228.934 97.0213 228.46 97.8012 228.654C97.8796 228.674 97.9563 228.7 98.0304 228.732Z" fill="#EB5757"/>
<path fill-rule="evenodd" clip-rule="evenodd" d="M59.1462 193.485L62.1905 192.18L65.2348 198.487L62.1905 200.444L59.1462 193.485ZM69.3664 195.877C68.5542 195.877 67.7377 195.743 67.1919 195.225C66.6077 194.67 66.3221 193.702 66.3221 192.833C66.3221 192.137 66.5817 191.171 66.9744 190.658C67.5308 189.932 68.3808 189.789 69.3664 189.789C70.2439 189.789 70.9853 189.847 71.5409 190.441C72.0498 190.985 72.4107 192.029 72.4107 192.833C72.4107 193.837 72.0727 194.888 71.3234 195.442C70.8176 195.817 70.0439 195.877 69.3664 195.877Z" fill="#FFD1D1"/>
<path d="M58.9333 193.315L62.5664 191.758L65.8718 198.605L62.2627 200.925L58.9333 193.315ZM62.5537 199.962L65.0332 198.368L62.25 192.603L59.7945 193.656L62.5537 199.962ZM69.584 196.203C68.543 196.203 67.7456 195.994 67.1849 195.461C66.5637 194.871 66.2136 193.853 66.2136 192.833C66.2136 192.034 66.5102 191.012 66.9332 190.46C67.504 189.715 68.3117 189.462 69.584 189.462C70.7958 189.462 71.4358 189.618 71.9967 190.218C72.5543 190.814 72.9545 191.931 72.9545 192.833C72.9545 194.023 72.5283 195.117 71.7351 195.704C71.2279 196.08 70.5472 196.203 69.584 196.203ZM69.584 195.551C70.416 195.551 70.9855 195.448 71.347 195.18C71.9523 194.732 72.3021 193.834 72.3021 192.833C72.3021 192.09 71.9594 191.133 71.5203 190.664C71.1183 190.234 70.6293 190.115 69.584 190.115C68.4944 190.115 67.8699 190.31 67.451 190.857C67.1222 191.286 66.8659 192.168 66.8659 192.833C66.8659 193.688 67.1572 194.535 67.6341 194.988C68.0478 195.381 68.6942 195.551 69.584 195.551Z" fill="#EB5757"/>
<path d="M229.626 101.939H191.79C191.07 101.939 190.486 102.523 190.486 103.244C190.486 103.964 191.07 104.548 191.79 104.548H229.626C230.347 104.548 230.931 103.964 230.931 103.244C230.931 102.523 230.347 101.939 229.626 101.939Z" fill="white"/>
<path d="M191.79 101.939H229.626C230.347 101.939 230.931 102.523 230.931 103.244C230.931 103.964 230.347 104.548 229.626 104.548H191.79C191.07 104.548 190.486 103.964 190.486 103.244C190.486 102.523 191.07 101.939 191.79 101.939ZM191.79 102.591C191.43 102.591 191.138 102.883 191.138 103.244C191.138 103.604 191.43 103.896 191.79 103.896H229.626C229.987 103.896 230.279 103.604 230.279 103.244C230.279 102.883 229.987 102.591 229.626 102.591H191.79Z" fill="#EB5757"/>
<path d="M134.929 280.568L117.752 246.856C117.506 246.374 116.917 246.183 116.436 246.428C115.954 246.674 115.763 247.263 116.008 247.744L133.185 281.457C133.431 281.938 134.02 282.13 134.501 281.884C134.983 281.639 135.174 281.05 134.929 280.568Z" fill="white" stroke="#EB5757" stroke-width="1.5"/>
<path fill-rule="evenodd" clip-rule="evenodd" d="M124.432 193.837C123.193 194.887 117.386 190.428 116.144 189.903C115.476 189.62 115.164 188.85 115.447 188.183C115.706 187.571 116.381 187.249 117.02 187.433C120.835 188.534 122.985 189.333 123.471 189.829C124.704 191.086 125.671 192.786 124.432 193.837Z" fill="white"/>
<path fill-rule="evenodd" clip-rule="evenodd" d="M153.662 223.483L166.651 215.255C166.854 215.127 167.122 215.187 167.251 215.39C167.254 215.395 167.257 215.4 167.26 215.405L172.23 224.004C172.346 224.205 172.284 224.462 172.089 224.588L159.332 232.818C159.13 232.948 158.861 232.89 158.731 232.689C158.728 232.685 158.726 232.681 158.724 232.678L153.522 224.075C153.4 223.873 153.462 223.609 153.662 223.483Z" fill="white"/>
<path d="M153.051 223.615L166.697 215.087C166.901 214.96 167.169 215.022 167.296 215.226L172.827 224.077C172.954 224.281 172.893 224.549 172.689 224.677L159.043 233.204C158.839 233.331 158.571 233.269 158.443 233.065L152.912 224.214C152.785 224.01 152.847 223.742 153.051 223.615ZM153.581 224.053L158.881 232.535L172.159 224.239L166.858 215.756L153.581 224.053Z" fill="#EB5757"/>
<path d="M156.338 223.748L165.189 218.216C165.393 218.089 165.661 218.151 165.788 218.355L169.476 224.256C169.603 224.46 169.541 224.728 169.337 224.855L160.486 230.386C160.282 230.513 160.014 230.452 159.887 230.248L156.199 224.347C156.072 224.143 156.134 223.875 156.338 223.748ZM160.325 229.718L168.807 224.417L165.35 218.885L156.868 224.186L160.325 229.718Z" fill="#EB5757"/>
</svg>
