<svg width="32" height="32" viewBox="0 0 32 32" fill="none" xmlns="http://www.w3.org/2000/svg">
<path d="M0 4C0 1.79086 1.79086 0 4 0H28C30.2091 0 32 1.79086 32 4V28C32 30.2091 30.2091 32 28 32H4C1.79086 32 0 30.2091 0 28V4Z" fill="#FCE8E8"/>
<path d="M0 27.5686C0 26.5603 0.380836 25.5891 1.06628 24.8496L9.45851 15.7948C11.1247 13.997 14.015 14.1575 15.4719 16.1287C16.9473 18.1248 19.8849 18.2592 21.5365 16.4063L30.2535 6.62619C30.8649 5.94025 32 6.3727 32 7.29156V28C32 30.2092 30.2091 32 28 32H4C1.79086 32 0 30.2092 0 28V27.5686Z" fill="#FF4B33"/>
</svg>
