<svg width="53" height="53" viewBox="0 0 53 53" fill="none" xmlns="http://www.w3.org/2000/svg">
<path fill-rule="evenodd" clip-rule="evenodd" d="M26.608 10.455C17.614 10.455 10.32 17.748 10.32 26.745C10.32 33.942 14.987 40.047 21.46 42.201C22.275 42.351 22.572 41.848 22.572 41.416C22.572 41.029 22.558 40.005 22.55 38.646C18.019 39.63 17.063 36.462 17.063 36.462C16.322 34.58 15.254 34.079 15.254 34.079C13.775 33.069 15.366 33.089 15.366 33.089C17.001 33.204 17.861 34.768 17.861 34.768C19.314 37.257 21.674 36.538 22.602 36.121C22.75 35.069 23.171 34.351 23.636 33.944C20.019 33.533 16.216 32.135 16.216 25.893C16.216 24.115 16.851 22.66 17.893 21.522C17.725 21.11 17.166 19.453 18.053 17.211C18.053 17.211 19.42 16.773 22.532 18.881C23.831 18.519 25.225 18.339 26.61 18.332C27.994 18.339 29.387 18.519 30.688 18.881C33.798 16.773 35.163 17.211 35.163 17.211C36.052 19.453 35.493 21.11 35.326 21.522C36.37 22.66 37 24.115 37 25.893C37 32.151 33.191 33.528 29.563 33.931C30.147 34.434 30.668 35.428 30.668 36.947C30.668 39.125 30.648 40.882 30.648 41.416C30.648 41.852 30.942 42.359 31.768 42.2C38.236 40.041 42.899 33.94 42.899 26.745C42.899 17.748 35.605 10.455 26.608 10.455Z" fill="#ffffff"/>
</svg>
