<svg width="52" height="52" viewBox="0 0 52 52" fill="none" xmlns="http://www.w3.org/2000/svg">
<g clip-path="url(#clip0)">
<path fill-rule="evenodd" clip-rule="evenodd" d="M40.7683 26.0549C40.7683 24.9417 40.6684 23.8714 40.4829 22.8439H25.6981V28.9162H34.1466C33.7826 30.8785 32.6766 32.5411 31.0141 33.6542V37.593H36.0874C39.0558 34.8601 40.7683 30.8357 40.7683 26.0549Z" fill="#4285F4"/>
<path fill-rule="evenodd" clip-rule="evenodd" d="M25.6981 41.3962C29.9366 41.3962 33.4901 39.9905 36.0874 37.593L31.0141 33.6542C29.6084 34.5961 27.8102 35.1527 25.6981 35.1527C21.6095 35.1527 18.1487 32.3912 16.9143 28.6808H11.6697V32.748C14.2528 37.8784 19.5616 41.3962 25.6981 41.3962Z" fill="#34A853"/>
<path fill-rule="evenodd" clip-rule="evenodd" d="M16.9143 28.6808C16.6003 27.7389 16.422 26.7328 16.422 25.6981C16.422 24.6635 16.6003 23.6574 16.9143 22.7155V18.6483H11.6697C10.6065 20.7675 10 23.165 10 25.6981C10 28.2312 10.6065 30.6288 11.6697 32.748L16.9143 28.6808Z" fill="#FBBC05"/>
<path fill-rule="evenodd" clip-rule="evenodd" d="M25.6981 16.2436C28.0029 16.2436 30.0722 17.0356 31.6991 18.5911L36.2016 14.0886C33.4829 11.5555 29.9295 10 25.6981 10C19.5616 10 14.2528 13.5178 11.6697 18.6482L16.9143 22.7155C18.1487 19.005 21.6095 16.2436 25.6981 16.2436Z" fill="#EA4335"/>
</g>
<defs>
<clipPath id="clip0">
<rect width="31.3962" height="31.3962" fill="white" transform="translate(10 10)"/>
</clipPath>
</defs>
</svg>
